<svg width="28" height="18" viewBox="0 0 28 18" fill="none" xmlns="http://www.w3.org/2000/svg">
<path d="M0 9C0 4.02944 4.02944 0 9 0H19C23.9706 0 28 4.02944 28 9C28 13.9706 23.9706 18 19 18H9C4.02944 18 0 13.9706 0 9Z" fill="#F7E1E1"/>
<path d="M14.1211 7.2927C13.8375 7.2927 13.6169 7.51327 13.6169 7.79685V8.93118C13.6169 9.21476 13.8375 9.43532 14.1211 9.43532C14.4046 9.43532 14.6252 9.21476 14.6252 8.93118V7.79685C14.6567 7.52902 14.4204 7.2927 14.1211 7.2927ZM18.8159 8.88391C18.8159 8.78939 18.8159 8.71061 18.8159 8.6476V8.60033C18.8159 6.06385 16.7363 4 14.2156 4H14.1841C12.0099 4 10.1509 5.49668 9.69403 7.60779C8.19735 7.73383 7 8.97844 7 10.5224V10.6169C7 12.2239 8.30763 13.5 9.89884 13.5H18.6111C19.84 13.5 20.8483 12.4917 20.8483 11.2629V11.1368C20.8798 9.93947 19.966 8.97844 18.8159 8.88391ZM15.6808 11.1526H12.5771C11.9469 11.1526 11.5531 10.4751 11.8682 9.93947L13.4279 7.26119C13.743 6.72554 14.5307 6.72554 14.8458 7.26119L16.4055 9.93947C16.7048 10.4751 16.3109 11.1526 15.6808 11.1526ZM14.1211 9.6874C13.8375 9.6874 13.6169 9.90796 13.6169 10.1915V10.2231C13.6169 10.5066 13.8375 10.7272 14.1211 10.7272C14.4046 10.7272 14.6252 10.5066 14.6252 10.2231V10.1915C14.6567 9.92371 14.4204 9.6874 14.1211 9.6874Z" fill="#FE2626"/>
</svg>
