<svg width="62" height="19" viewBox="0 0 62 19" fill="none" xmlns="http://www.w3.org/2000/svg">
<rect width="62" height="19" rx="9.5" fill="#F1F2F6"/>
<path d="M10.5748 10.984L12.7748 8.85603C12.8388 8.79203 12.9054 8.72536 12.9748 8.65603C13.0441 8.58136 13.1054 8.50403 13.1588 8.42403C13.2174 8.34403 13.2654 8.26136 13.3028 8.17603C13.3401 8.08536 13.3588 7.99203 13.3588 7.89603C13.3588 7.7787 13.3348 7.6747 13.2868 7.58403C13.2441 7.49336 13.1854 7.41603 13.1108 7.35203C13.0361 7.28803 12.9481 7.24003 12.8468 7.20803C12.7508 7.1707 12.6468 7.15203 12.5348 7.15203C12.2948 7.15203 12.0974 7.22136 11.9428 7.36003C11.7881 7.4987 11.6948 7.68536 11.6628 7.92003L10.6548 7.84003C10.6761 7.5787 10.7374 7.34936 10.8388 7.15203C10.9454 6.94936 11.0814 6.78136 11.2468 6.64803C11.4121 6.5147 11.6041 6.41336 11.8228 6.34403C12.0414 6.2747 12.2788 6.24003 12.5348 6.24003C12.7908 6.24003 13.0281 6.2747 13.2468 6.34403C13.4708 6.40803 13.6654 6.5067 13.8308 6.64003C13.9961 6.76803 14.1268 6.93336 14.2228 7.13603C14.3188 7.3387 14.3668 7.57603 14.3668 7.84803C14.3668 8.20536 14.2841 8.5147 14.1188 8.77603C13.9588 9.03203 13.7508 9.27736 13.4948 9.51203L11.7428 11.136H14.3668V12H10.5748V10.984ZM17.5163 6.33603H19.7483C20.1217 6.33603 20.4817 6.3947 20.8283 6.51203C21.175 6.62403 21.4817 6.79736 21.7483 7.03203C22.015 7.2667 22.2283 7.5627 22.3883 7.92003C22.5483 8.27203 22.6283 8.68803 22.6283 9.16803C22.6283 9.65336 22.535 10.0747 22.3483 10.432C22.167 10.784 21.9297 11.0774 21.6363 11.312C21.3483 11.5414 21.0257 11.7147 20.6683 11.832C20.3163 11.944 19.9697 12 19.6283 12H17.5163V6.33603ZM19.2763 11.088C19.591 11.088 19.887 11.0534 20.1643 10.984C20.447 10.9094 20.6923 10.7974 20.9003 10.648C21.1083 10.4934 21.271 10.296 21.3883 10.056C21.511 9.8107 21.5723 9.5147 21.5723 9.16803C21.5723 8.8267 21.519 8.53336 21.4123 8.28803C21.3057 8.0427 21.1563 7.84536 20.9643 7.69603C20.7777 7.54136 20.5537 7.42936 20.2923 7.36003C20.0363 7.28536 19.7537 7.24803 19.4443 7.24803H18.5243V11.088H19.2763ZM25.7386 11.472H25.7146C25.576 11.6907 25.4 11.8507 25.1866 11.952C24.9733 12.048 24.7386 12.096 24.4826 12.096C24.3066 12.096 24.1333 12.072 23.9626 12.024C23.7973 11.976 23.648 11.904 23.5146 11.808C23.3866 11.712 23.2826 11.592 23.2026 11.448C23.1226 11.304 23.0826 11.136 23.0826 10.944C23.0826 10.736 23.12 10.56 23.1946 10.416C23.2693 10.2667 23.368 10.144 23.4906 10.048C23.6186 9.9467 23.7653 9.8667 23.9306 9.80803C24.096 9.74936 24.2666 9.7067 24.4426 9.68003C24.624 9.64803 24.8053 9.62936 24.9866 9.62403C25.168 9.61336 25.3386 9.60803 25.4986 9.60803H25.7386V9.50403C25.7386 9.26403 25.656 9.08536 25.4906 8.96803C25.3253 8.84536 25.1146 8.78403 24.8586 8.78403C24.656 8.78403 24.4666 8.82136 24.2906 8.89603C24.1146 8.96536 23.9626 9.06136 23.8346 9.18403L23.3306 8.68003C23.544 8.46136 23.792 8.30403 24.0746 8.20803C24.3626 8.11203 24.6586 8.06403 24.9626 8.06403C25.2346 8.06403 25.464 8.09603 25.6506 8.16003C25.8373 8.2187 25.992 8.29603 26.1146 8.39203C26.2373 8.48803 26.3306 8.60003 26.3946 8.72803C26.464 8.8507 26.512 8.97603 26.5386 9.10403C26.5706 9.23203 26.5893 9.35736 26.5946 9.48003C26.6 9.59736 26.6026 9.70136 26.6026 9.79203V12H25.7386V11.472ZM25.6826 10.28H25.4826C25.3493 10.28 25.2 10.2854 25.0346 10.296C24.8693 10.3067 24.712 10.3334 24.5626 10.376C24.4186 10.4134 24.296 10.472 24.1946 10.552C24.0933 10.6267 24.0426 10.7334 24.0426 10.872C24.0426 10.9627 24.0613 11.04 24.0986 11.104C24.1413 11.1627 24.1946 11.2134 24.2586 11.256C24.3226 11.2987 24.3946 11.3307 24.4746 11.352C24.5546 11.368 24.6346 11.376 24.7146 11.376C25.0453 11.376 25.288 11.2987 25.4426 11.144C25.6026 10.984 25.6826 10.768 25.6826 10.496V10.28ZM26.9555 8.16003H28.0115L29.0835 10.824H29.0995L30.0595 8.16003H31.0595L29.2435 12.824C29.1742 13.0054 29.0968 13.1627 29.0115 13.296C28.9315 13.4347 28.8355 13.5494 28.7235 13.64C28.6115 13.736 28.4782 13.8054 28.3235 13.848C28.1742 13.896 27.9928 13.92 27.7795 13.92C27.5288 13.92 27.2835 13.888 27.0435 13.824L27.1635 12.96C27.2382 12.9867 27.3155 13.008 27.3955 13.024C27.4808 13.0454 27.5662 13.056 27.6515 13.056C27.7688 13.056 27.8675 13.0454 27.9475 13.024C28.0275 13.0027 28.0942 12.968 28.1475 12.92C28.2062 12.8774 28.2542 12.8187 28.2915 12.744C28.3288 12.6747 28.3688 12.5894 28.4115 12.488L28.5955 12.032L26.9555 8.16003ZM33.5119 9.22403C33.3253 8.9627 33.0746 8.83203 32.7599 8.83203C32.6319 8.83203 32.5066 8.86403 32.3839 8.92803C32.2613 8.99203 32.1999 9.09603 32.1999 9.24003C32.1999 9.35736 32.2506 9.4427 32.3519 9.49603C32.4533 9.54936 32.5813 9.5947 32.7359 9.63203C32.8906 9.66936 33.0559 9.70936 33.2319 9.75203C33.4133 9.78936 33.5813 9.8507 33.7359 9.93603C33.8906 10.016 34.0186 10.128 34.1199 10.272C34.2213 10.416 34.2719 10.6134 34.2719 10.864C34.2719 11.0934 34.2213 11.288 34.1199 11.448C34.0239 11.6027 33.8959 11.728 33.7359 11.824C33.5813 11.92 33.4053 11.9894 33.2079 12.032C33.0106 12.0747 32.8133 12.096 32.6159 12.096C32.3173 12.096 32.0426 12.0534 31.7919 11.968C31.5413 11.8827 31.3173 11.728 31.1199 11.504L31.7599 10.904C31.8826 11.0427 32.0133 11.1574 32.1519 11.248C32.2959 11.3334 32.4693 11.376 32.6719 11.376C32.7413 11.376 32.8133 11.368 32.8879 11.352C32.9626 11.336 33.0319 11.3094 33.0959 11.272C33.1599 11.2347 33.2106 11.1894 33.2479 11.136C33.2906 11.0774 33.3119 11.0107 33.3119 10.936C33.3119 10.8027 33.2613 10.704 33.1599 10.64C33.0586 10.576 32.9306 10.5254 32.7759 10.488C32.6213 10.4454 32.4533 10.408 32.2719 10.376C32.0959 10.3387 31.9306 10.2827 31.7759 10.208C31.6213 10.128 31.4933 10.0187 31.3919 9.88003C31.2906 9.74136 31.2399 9.54936 31.2399 9.30403C31.2399 9.0907 31.2826 8.9067 31.3679 8.75203C31.4586 8.59203 31.5759 8.46136 31.7199 8.36003C31.8639 8.2587 32.0293 8.18403 32.2159 8.13603C32.4026 8.08803 32.5919 8.06403 32.7839 8.06403C33.0399 8.06403 33.2933 8.10936 33.5439 8.20003C33.7946 8.28536 33.9973 8.4347 34.1519 8.64803L33.5119 9.22403ZM38.9858 6.33603H39.8578L42.2978 12H41.1458L40.6178 10.704H38.1618L37.6498 12H36.5218L38.9858 6.33603ZM40.2658 9.84003L39.3938 7.53603L38.5058 9.84003H40.2658ZM46.6313 8.16003V11.656C46.6313 12.0027 46.5886 12.3147 46.5033 12.592C46.4179 12.8747 46.2846 13.112 46.1033 13.304C45.9273 13.5014 45.7033 13.6534 45.4313 13.76C45.1593 13.8667 44.8366 13.92 44.4633 13.92C44.1059 13.92 43.7673 13.8747 43.4473 13.784C43.1273 13.6934 42.8313 13.528 42.5593 13.288L43.1353 12.504C43.3273 12.68 43.5273 12.816 43.7353 12.912C43.9433 13.008 44.1833 13.056 44.4553 13.056C44.6846 13.056 44.8766 13.024 45.0313 12.96C45.1913 12.896 45.3166 12.808 45.4073 12.696C45.5033 12.584 45.5699 12.448 45.6073 12.288C45.6499 12.1334 45.6713 11.96 45.6713 11.768V11.488H45.6553C45.5166 11.6747 45.3326 11.816 45.1033 11.912C44.8739 12.0027 44.6393 12.048 44.3993 12.048C44.1113 12.048 43.8499 11.9974 43.6153 11.896C43.3806 11.7894 43.1779 11.648 43.0073 11.472C42.8419 11.296 42.7139 11.088 42.6233 10.848C42.5326 10.608 42.4873 10.352 42.4873 10.08C42.4873 9.79736 42.5299 9.53336 42.6153 9.28803C42.7006 9.0427 42.8259 8.82936 42.9913 8.64803C43.1566 8.4667 43.3539 8.32536 43.5833 8.22403C43.8179 8.11736 44.0846 8.06403 44.3833 8.06403C44.6553 8.06403 44.9086 8.11736 45.1433 8.22403C45.3779 8.3307 45.5646 8.50136 45.7033 8.73603H45.7193V8.16003H46.6313ZM44.5833 8.92803C44.4126 8.92803 44.2579 8.95736 44.1193 9.01603C43.9806 9.06936 43.8606 9.1467 43.7593 9.24803C43.6633 9.34403 43.5859 9.46403 43.5273 9.60803C43.4739 9.7467 43.4473 9.90136 43.4473 10.072C43.4473 10.2267 43.4739 10.3707 43.5273 10.504C43.5859 10.6374 43.6659 10.7547 43.7673 10.856C43.8686 10.9574 43.9886 11.0374 44.1273 11.096C44.2659 11.1547 44.4153 11.184 44.5753 11.184C44.7513 11.184 44.9086 11.1547 45.0473 11.096C45.1913 11.0374 45.3113 10.96 45.4073 10.864C45.5086 10.7627 45.5859 10.6427 45.6393 10.504C45.6926 10.3654 45.7193 10.216 45.7193 10.056C45.7193 9.72003 45.6179 9.44803 45.4153 9.24003C45.2126 9.03203 44.9353 8.92803 44.5833 8.92803ZM47.3663 10.08C47.3663 9.77603 47.4196 9.50136 47.5263 9.25603C47.6383 9.00536 47.7876 8.79203 47.9743 8.61603C48.161 8.44003 48.3823 8.30403 48.6383 8.20803C48.8943 8.11203 49.1663 8.06403 49.4543 8.06403C49.7423 8.06403 50.0143 8.11203 50.2703 8.20803C50.5263 8.30403 50.7476 8.44003 50.9343 8.61603C51.121 8.79203 51.2677 9.00536 51.3743 9.25603C51.4863 9.50136 51.5423 9.77603 51.5423 10.08C51.5423 10.384 51.4863 10.6614 51.3743 10.912C51.2677 11.1574 51.121 11.368 50.9343 11.544C50.7476 11.72 50.5263 11.856 50.2703 11.952C50.0143 12.048 49.7423 12.096 49.4543 12.096C49.1663 12.096 48.8943 12.048 48.6383 11.952C48.3823 11.856 48.161 11.72 47.9743 11.544C47.7876 11.368 47.6383 11.1574 47.5263 10.912C47.4196 10.6614 47.3663 10.384 47.3663 10.08ZM48.3263 10.08C48.3263 10.2294 48.3503 10.3734 48.3983 10.512C48.4516 10.6507 48.5263 10.7734 48.6223 10.88C48.7236 10.9867 48.8436 11.072 48.9823 11.136C49.121 11.2 49.2783 11.232 49.4543 11.232C49.6303 11.232 49.7877 11.2 49.9263 11.136C50.065 11.072 50.1823 10.9867 50.2783 10.88C50.3797 10.7734 50.4543 10.6507 50.5023 10.512C50.5556 10.3734 50.5823 10.2294 50.5823 10.08C50.5823 9.9307 50.5556 9.7867 50.5023 9.64803C50.4543 9.50936 50.3797 9.3867 50.2783 9.28003C50.1823 9.17336 50.065 9.08803 49.9263 9.02403C49.7877 8.96003 49.6303 8.92803 49.4543 8.92803C49.2783 8.92803 49.121 8.96003 48.9823 9.02403C48.8436 9.08803 48.7236 9.17336 48.6223 9.28003C48.5263 9.3867 48.4516 9.50936 48.3983 9.64803C48.3503 9.7867 48.3263 9.9307 48.3263 10.08Z" fill="#A9B0BE"/>
</svg>
