<svg width="56" height="19" viewBox="0 0 56 19" fill="none" xmlns="http://www.w3.org/2000/svg">
<rect width="56" height="19" rx="9.5" fill="#F2E6FF"/>
<path d="M12.0787 6.33603H14.3107C14.684 6.33603 15.044 6.3947 15.3907 6.51203C15.7374 6.62403 16.044 6.79736 16.3107 7.03203C16.5774 7.2667 16.7907 7.5627 16.9507 7.92003C17.1107 8.27203 17.1907 8.68803 17.1907 9.16803C17.1907 9.65336 17.0974 10.0747 16.9107 10.432C16.7294 10.784 16.492 11.0774 16.1987 11.312C15.9107 11.5414 15.588 11.7147 15.2307 11.832C14.8787 11.944 14.532 12 14.1907 12H12.0787V6.33603ZM13.8387 11.088C14.1534 11.088 14.4494 11.0534 14.7267 10.984C15.0094 10.9094 15.2547 10.7974 15.4627 10.648C15.6707 10.4934 15.8334 10.296 15.9507 10.056C16.0734 9.8107 16.1347 9.5147 16.1347 9.16803C16.1347 8.8267 16.0814 8.53336 15.9747 8.28803C15.868 8.0427 15.7187 7.84536 15.5267 7.69603C15.34 7.54136 15.116 7.42936 14.8547 7.36003C14.5987 7.28536 14.316 7.24803 14.0067 7.24803H13.0867V11.088H13.8387ZM17.901 8.16003H18.861V8.76803H18.877C18.9837 8.54403 19.1357 8.3707 19.333 8.24803C19.5303 8.12536 19.757 8.06403 20.013 8.06403C20.0717 8.06403 20.1277 8.06936 20.181 8.08003C20.2397 8.0907 20.2983 8.10403 20.357 8.12003V9.04803C20.277 9.0267 20.197 9.0107 20.117 9.00003C20.0423 8.98403 19.9677 8.97603 19.893 8.97603C19.669 8.97603 19.4877 9.0187 19.349 9.10403C19.2157 9.18403 19.1117 9.27736 19.037 9.38403C18.9677 9.4907 18.9197 9.59736 18.893 9.70403C18.8717 9.8107 18.861 9.8907 18.861 9.94403V12H17.901V8.16003ZM20.5178 10.08C20.5178 9.77603 20.5711 9.50136 20.6778 9.25603C20.7898 9.00536 20.9391 8.79203 21.1258 8.61603C21.3124 8.44003 21.5338 8.30403 21.7898 8.20803C22.0458 8.11203 22.3178 8.06403 22.6058 8.06403C22.8938 8.06403 23.1658 8.11203 23.4218 8.20803C23.6778 8.30403 23.8991 8.44003 24.0858 8.61603C24.2724 8.79203 24.4191 9.00536 24.5258 9.25603C24.6378 9.50136 24.6938 9.77603 24.6938 10.08C24.6938 10.384 24.6378 10.6614 24.5258 10.912C24.4191 11.1574 24.2724 11.368 24.0858 11.544C23.8991 11.72 23.6778 11.856 23.4218 11.952C23.1658 12.048 22.8938 12.096 22.6058 12.096C22.3178 12.096 22.0458 12.048 21.7898 11.952C21.5338 11.856 21.3124 11.72 21.1258 11.544C20.9391 11.368 20.7898 11.1574 20.6778 10.912C20.5711 10.6614 20.5178 10.384 20.5178 10.08ZM21.4778 10.08C21.4778 10.2294 21.5018 10.3734 21.5498 10.512C21.6031 10.6507 21.6778 10.7734 21.7738 10.88C21.8751 10.9867 21.9951 11.072 22.1338 11.136C22.2724 11.2 22.4298 11.232 22.6058 11.232C22.7818 11.232 22.9391 11.2 23.0778 11.136C23.2164 11.072 23.3338 10.9867 23.4298 10.88C23.5311 10.7734 23.6058 10.6507 23.6538 10.512C23.7071 10.3734 23.7338 10.2294 23.7338 10.08C23.7338 9.9307 23.7071 9.7867 23.6538 9.64803C23.6058 9.50936 23.5311 9.3867 23.4298 9.28003C23.3338 9.17336 23.2164 9.08803 23.0778 9.02403C22.9391 8.96003 22.7818 8.92803 22.6058 8.92803C22.4298 8.92803 22.2724 8.96003 22.1338 9.02403C21.9951 9.08803 21.8751 9.17336 21.7738 9.28003C21.6778 9.3867 21.6031 9.50936 21.5498 9.64803C21.5018 9.7867 21.4778 9.9307 21.4778 10.08ZM25.4326 8.16003H26.3446V8.73603H26.3606C26.4992 8.50136 26.6859 8.3307 26.9206 8.22403C27.1552 8.11736 27.4086 8.06403 27.6806 8.06403C27.9739 8.06403 28.2379 8.11736 28.4726 8.22403C28.7072 8.32536 28.9072 8.4667 29.0726 8.64803C29.2379 8.82936 29.3632 9.0427 29.4486 9.28803C29.5339 9.53336 29.5766 9.79736 29.5766 10.08C29.5766 10.3627 29.5312 10.6267 29.4406 10.872C29.3499 11.1174 29.2219 11.3307 29.0566 11.512C28.8966 11.6934 28.7019 11.8374 28.4726 11.944C28.2432 12.0454 27.9926 12.096 27.7206 12.096C27.5392 12.096 27.3792 12.0774 27.2406 12.04C27.1019 12.0027 26.9792 11.9547 26.8726 11.896C26.7659 11.8374 26.6752 11.776 26.6006 11.712C26.5259 11.6427 26.4646 11.576 26.4166 11.512H26.3926V13.824H25.4326V8.16003ZM28.6166 10.08C28.6166 9.9307 28.5899 9.7867 28.5366 9.64803C28.4886 9.50936 28.4139 9.3867 28.3126 9.28003C28.2166 9.17336 28.0992 9.08803 27.9606 9.02403C27.8219 8.96003 27.6646 8.92803 27.4886 8.92803C27.3126 8.92803 27.1552 8.96003 27.0166 9.02403C26.8779 9.08803 26.7579 9.17336 26.6566 9.28003C26.5606 9.3867 26.4859 9.50936 26.4326 9.64803C26.3846 9.7867 26.3606 9.9307 26.3606 10.08C26.3606 10.2294 26.3846 10.3734 26.4326 10.512C26.4859 10.6507 26.5606 10.7734 26.6566 10.88C26.7579 10.9867 26.8779 11.072 27.0166 11.136C27.1552 11.2 27.3126 11.232 27.4886 11.232C27.6646 11.232 27.8219 11.2 27.9606 11.136C28.0992 11.072 28.2166 10.9867 28.3126 10.88C28.4139 10.7734 28.4886 10.6507 28.5366 10.512C28.5899 10.3734 28.6166 10.2294 28.6166 10.08ZM32.3596 9.22403C32.173 8.9627 31.9223 8.83203 31.6076 8.83203C31.4796 8.83203 31.3543 8.86403 31.2316 8.92803C31.109 8.99203 31.0476 9.09603 31.0476 9.24003C31.0476 9.35736 31.0983 9.4427 31.1996 9.49603C31.301 9.54936 31.429 9.5947 31.5836 9.63203C31.7383 9.66936 31.9036 9.70936 32.0796 9.75203C32.261 9.78936 32.429 9.8507 32.5836 9.93603C32.7383 10.016 32.8663 10.128 32.9676 10.272C33.069 10.416 33.1196 10.6134 33.1196 10.864C33.1196 11.0934 33.069 11.288 32.9676 11.448C32.8716 11.6027 32.7436 11.728 32.5836 11.824C32.429 11.92 32.253 11.9894 32.0556 12.032C31.8583 12.0747 31.661 12.096 31.4636 12.096C31.165 12.096 30.8903 12.0534 30.6396 11.968C30.389 11.8827 30.165 11.728 29.9676 11.504L30.6076 10.904C30.7303 11.0427 30.861 11.1574 30.9996 11.248C31.1436 11.3334 31.317 11.376 31.5196 11.376C31.589 11.376 31.661 11.368 31.7356 11.352C31.8103 11.336 31.8796 11.3094 31.9436 11.272C32.0076 11.2347 32.0583 11.1894 32.0956 11.136C32.1383 11.0774 32.1596 11.0107 32.1596 10.936C32.1596 10.8027 32.109 10.704 32.0076 10.64C31.9063 10.576 31.7783 10.5254 31.6236 10.488C31.469 10.4454 31.301 10.408 31.1196 10.376C30.9436 10.3387 30.7783 10.2827 30.6236 10.208C30.469 10.128 30.341 10.0187 30.2396 9.88003C30.1383 9.74136 30.0876 9.54936 30.0876 9.30403C30.0876 9.0907 30.1303 8.9067 30.2156 8.75203C30.3063 8.59203 30.4236 8.46136 30.5676 8.36003C30.7116 8.2587 30.877 8.18403 31.0636 8.13603C31.2503 8.08803 31.4396 8.06403 31.6316 8.06403C31.8876 8.06403 32.141 8.10936 32.3916 8.20003C32.6423 8.28536 32.845 8.4347 32.9996 8.64803L32.3596 9.22403ZM34.6663 8.69603H34.6823C34.757 8.53603 34.8877 8.39203 35.0743 8.26403C35.2663 8.1307 35.5117 8.06403 35.8103 8.06403C36.0663 8.06403 36.2823 8.1067 36.4583 8.19203C36.6397 8.27736 36.7863 8.38936 36.8983 8.52803C37.0103 8.6667 37.0903 8.8267 37.1383 9.00803C37.1863 9.18936 37.2103 9.3787 37.2103 9.57603V12H36.2503V10.056C36.2503 9.94936 36.245 9.83203 36.2343 9.70403C36.2237 9.5707 36.1943 9.44803 36.1463 9.33603C36.1037 9.2187 36.0343 9.1227 35.9383 9.04803C35.8423 8.96803 35.7117 8.92803 35.5463 8.92803C35.3863 8.92803 35.2503 8.9547 35.1383 9.00803C35.0317 9.06136 34.941 9.13336 34.8663 9.22403C34.797 9.3147 34.7463 9.4187 34.7143 9.53603C34.6823 9.65336 34.6663 9.77603 34.6663 9.90403V12H33.7063V5.95203H34.6663V8.69603ZM38.1561 8.16003H39.1161V12H38.1561V8.16003ZM38.0201 6.85603C38.0201 6.70136 38.0761 6.56803 38.1881 6.45603C38.3054 6.3387 38.4521 6.28003 38.6281 6.28003C38.8041 6.28003 38.9507 6.33603 39.0681 6.44803C39.1907 6.5547 39.2521 6.6907 39.2521 6.85603C39.2521 7.02136 39.1907 7.16003 39.0681 7.27203C38.9507 7.3787 38.8041 7.43203 38.6281 7.43203C38.4521 7.43203 38.3054 7.37603 38.1881 7.26403C38.0761 7.1467 38.0201 7.0107 38.0201 6.85603ZM40.0582 8.16003H40.9702V8.73603H40.9862C41.1249 8.50136 41.3115 8.3307 41.5462 8.22403C41.7809 8.11736 42.0342 8.06403 42.3062 8.06403C42.5995 8.06403 42.8635 8.11736 43.0982 8.22403C43.3329 8.32536 43.5329 8.4667 43.6982 8.64803C43.8635 8.82936 43.9889 9.0427 44.0742 9.28803C44.1595 9.53336 44.2022 9.79736 44.2022 10.08C44.2022 10.3627 44.1569 10.6267 44.0662 10.872C43.9755 11.1174 43.8475 11.3307 43.6822 11.512C43.5222 11.6934 43.3275 11.8374 43.0982 11.944C42.8689 12.0454 42.6182 12.096 42.3462 12.096C42.1649 12.096 42.0049 12.0774 41.8662 12.04C41.7275 12.0027 41.6049 11.9547 41.4982 11.896C41.3915 11.8374 41.3009 11.776 41.2262 11.712C41.1515 11.6427 41.0902 11.576 41.0422 11.512H41.0182V13.824H40.0582V8.16003ZM43.2422 10.08C43.2422 9.9307 43.2155 9.7867 43.1622 9.64803C43.1142 9.50936 43.0395 9.3867 42.9382 9.28003C42.8422 9.17336 42.7249 9.08803 42.5862 9.02403C42.4475 8.96003 42.2902 8.92803 42.1142 8.92803C41.9382 8.92803 41.7809 8.96003 41.6422 9.02403C41.5035 9.08803 41.3835 9.17336 41.2822 9.28003C41.1862 9.3867 41.1115 9.50936 41.0582 9.64803C41.0102 9.7867 40.9862 9.9307 40.9862 10.08C40.9862 10.2294 41.0102 10.3734 41.0582 10.512C41.1115 10.6507 41.1862 10.7734 41.2822 10.88C41.3835 10.9867 41.5035 11.072 41.6422 11.136C41.7809 11.2 41.9382 11.232 42.1142 11.232C42.2902 11.232 42.4475 11.2 42.5862 11.136C42.7249 11.072 42.8422 10.9867 42.9382 10.88C43.0395 10.7734 43.1142 10.6507 43.1622 10.512C43.2155 10.3734 43.2422 10.2294 43.2422 10.08Z" fill="#8F23FE"/>
</svg>
