<svg width="28" height="18" viewBox="0 0 28 18" fill="none" xmlns="http://www.w3.org/2000/svg">
<rect width="28" height="18" rx="9" fill="#DBFAFF"/>
<path fill-rule="evenodd" clip-rule="evenodd" d="M14.9477 5.19067C15.3316 5.28571 15.6935 5.43766 16.0232 5.6366L16.8114 5.0516C16.9148 4.97509 17.0563 4.98529 17.1473 5.0763L17.9237 5.85272C18.0147 5.94373 18.0249 6.08521 17.9484 6.18857L17.3631 6.97707C17.5621 7.30702 17.7138 7.66839 17.8091 8.0523L18.7801 8.1962C18.9074 8.21499 19 8.32238 19 8.45125V9.54875C19 9.67762 18.9074 9.78501 18.7801 9.8038L17.8093 9.9477C17.714 10.3316 17.5623 10.6932 17.3634 11.0232L17.9484 11.8114C18.0249 11.9148 18.0147 12.0563 17.9237 12.1473L17.1473 12.9237C17.0563 13.0147 16.9148 13.0249 16.8114 12.9484L16.0232 12.3634C15.6935 12.5621 15.3316 12.714 14.9477 12.8093L14.8038 13.7801C14.785 13.9074 14.6776 14 14.5488 14H13.4512C13.3224 14 13.215 13.9074 13.1962 13.7801L13.0523 12.8093C12.6684 12.714 12.3068 12.5623 11.9768 12.3634L11.1886 12.9484C11.0852 13.0249 10.9437 13.0147 10.8527 12.9237L10.0763 12.1473C9.98529 12.0563 9.97509 11.9148 10.0516 11.8114L10.6366 11.0232C10.4379 10.6935 10.286 10.3316 10.1907 9.9477L9.21988 9.8038C9.09262 9.78501 9 9.67762 9 9.54875V8.45125C9 8.32238 9.09262 8.21499 9.21988 8.1962L10.1907 8.0523C10.286 7.66839 10.4377 7.30675 10.6366 6.9768L10.0516 6.18857C9.97509 6.08521 9.98529 5.94373 10.0763 5.85272L10.8527 5.0763C10.9437 4.98529 11.0852 4.97509 11.1886 5.0516L11.9768 5.6366C12.3065 5.43793 12.6684 5.28598 13.0523 5.19067L13.1962 4.21988C13.215 4.09262 13.3224 4 13.4512 4H14.5488C14.6776 4 14.785 4.09262 14.8038 4.21988L14.9477 5.19067ZM14 6.89358C15.1633 6.89358 16.1064 7.83672 16.1064 9C16.1064 10.1633 15.1633 11.1064 14 11.1064C12.8367 11.1064 11.8936 10.1633 11.8936 9C11.8936 7.83672 12.8367 6.89358 14 6.89358Z" fill="#00AACB"/>
</svg>
