<svg width="28" height="18" viewBox="0 0 28 18" fill="none" xmlns="http://www.w3.org/2000/svg">
<rect width="28" height="18" rx="9" fill="#F4EEBD"/>
<path d="M19.7938 8.995C19.1138 8.0175 18.3063 7.125 17.3713 6.4025L18.0513 5.7225C18.2213 5.5525 18.2213 5.2975 18.0513 5.1275C17.8813 4.9575 17.6263 4.9575 17.4563 5.1275L16.6913 5.8925C15.8838 5.34 14.9063 5.0425 13.9288 5C10.7838 5 8.14878 8.8675 8.06378 8.995C7.97878 9.1225 7.97878 9.335 8.06378 9.4625C8.74378 10.44 9.55128 11.3325 10.4863 12.0975L9.80628 12.7775C9.63628 12.9475 9.63628 13.2025 9.80628 13.3725C9.97628 13.5425 10.2313 13.5425 10.4013 13.3725L11.1663 12.6075C11.9738 13.16 12.9513 13.4575 13.9288 13.5C17.1163 13.5 19.7088 9.6325 19.7938 9.4625C19.8788 9.335 19.8788 9.165 19.7938 8.995ZM11.3788 9.25C11.3788 7.8475 12.5263 6.7 13.9288 6.7C14.4388 6.7 14.9913 6.87 15.4163 7.1675L14.7788 7.805C13.9713 7.3375 12.9088 7.635 12.4838 8.4425C12.1863 8.9525 12.1863 9.59 12.4838 10.1L11.8888 10.695C11.5488 10.27 11.3788 9.76 11.3788 9.25ZM13.9288 11.8C13.4188 11.8 12.8663 11.63 12.4413 11.3325L13.0788 10.7375C13.8863 11.205 14.9488 10.9075 15.4163 10.1C15.7138 9.59 15.7138 8.9525 15.4163 8.4425L16.0113 7.8475C16.8188 8.995 16.5213 10.61 15.3738 11.4175C14.9488 11.63 14.4388 11.8 13.9288 11.8Z" fill="#E3CA00"/>
</svg>
